# xmcd
#
# Track frame offsets:
#	150
#	28602
#	43097
#	57938
#	73380
#	87512
#	100972
#	116609
#	130875
#	144363
#	158639
#	173430
#	188253
#
# Disc length: 2706 seconds
#
# Revision: 1
# Processed by: cddbd v1.5.1PL0 Copyright (c) Steve Scherf et al.
# Submitted via: audiograbber 1.80
#
DISCID=ab0a900d
DTITLE=Bessie Smith - Blue Gems
DYEAR=1900
DGENRE=
TTITLE0=Empty Bed Blues
TTITLE1=Frosty Morning Blues
TTITLE2=Ticket´Agent, take your windows Down
TTITLE3=Careless Love Blues
TTITLE4=Saint Louis Blues
TTITLE5=Baby Doll
TTITLE6=Haunted House Blues
TTITLE7=Eaves Droppers Blues
TTITLE8=Alexander Rastime Band
TTITLE9=Whoa, Tille, Take Your Time
TTITLE10=Sorrowful Blues
TTITLE11=Back Water Blues
TTITLE12=Chicago Bound Blues
EXTD=
EXTT0=
EXTT1=
EXTT2=
EXTT3=
EXTT4=
EXTT5=
EXTT6=
EXTT7=
EXTT8=
EXTT9=
EXTT10=
EXTT11=
EXTT12=
PLAYORDER=
